<svg xmlns="http://www.w3.org/2000/svg" preserveAspectRatio="xMidYMid meet" style="display: block; overflow: hidden; pointer-events: auto;" data--h-bstatus="0OBSERVED" viewBox="129.28 399.97 817.89 1109.49">
   <g pointer-events="all" data--h-bstatus="0OBSERVED">

      <g class="kitab-group" data--h-bstatus="0OBSERVED">
         <path class="kitab-path" d="m 535.14523,400.01297 c -13.0779,0.56545 -23.25657,0.053 -27.49587,21.06895 -3.25024,20.45497 -7.45238,35.13538 -11.31462,52.04261 -6.96054,29.86704 -9.8566,60.44564 -17.74815,89.87479 -3.0967,17.42549 -6.82642,34.73069 -10.47461,52.04687 -21.13637,11.64898 -42.10573,24.01154 -60.66871,39.45587 -14.95032,14.72058 14.45241,8.69727 22.68834,15.89648 20.82555,8.13648 39.98332,21.00372 52.87295,39.5812 11.59134,11.94679 20.77369,-14.38526 33.58402,-16.0547 13.64567,-9.96669 30.95352,-12.24691 47.32856,-14.11901 16.11117,-1.07738 31.86699,4.28416 46.44841,10.0485 12.57771,8.40515 25.44894,23.87301 41.6351,13.17011 23.40799,-8.04521 46.24124,-16.53905 69.65329,-24.56387 6.38929,-13.20468 -11.92308,-27.41977 -19.63506,-38.25604 -15.74183,-15.08693 -33.29952,-28.83604 -54.483,-35.18631 -13.74767,-9.54896 -39.26699,-3.29932 -47.72656,-14.67789 -3.42349,-14.34436 4.28953,-55.88962 50.99219,-85.24147 12.14308,-4.53646 29.88889,-11.08494 45.24989,-10.18638 17.59979,-0.64144 29.7759,14.52472 46.54599,10.3641 13.90577,-3.45 23.30309,-27.92272 10.2632,-40.60047 -16.01407,-11.69685 -37.46413,-10.28263 -56.37604,-10.16095 -20.18385,1.50723 -40.75999,3.77362 -60.52413,6.48147 -28.82435,7.39026 -54.32447,26.0846 -69.79743,51.54771 -8.66645,14.03288 -13.07451,33.12395 -20.61768,49.37599 -4.21562,8.55058 -3.74034,33.31071 -11.83807,28.93374 2.71378,-21.5839 5.25712,-42.79991 7.71736,-64.8548 5.30699,-38.19406 12.6215,-76.04051 16.84702,-114.37714 -0.34903,-11.20423 -14.94504,-11.57649 -23.12639,-11.60936 z" data--h-bstatus="0OBSERVED" />
         <text class="kitab-name" x="584.91229" y="644.90576" text-anchor="middle" data--h-bstatus="0OBSERVED">معاجم الطبراني</text>
      </g>

      <g class="kitab-group" data--h-bstatus="0OBSERVED">
         <path class="kitab-path" d="m 326.05148,767.42898 c -9.763,-0.38075 -20.53078,2.92927 -29.05078,6.57227 -5.726,2.448 -9.47107,5.1488 -16.58008,10.0918 -2.45589,1.70762 -30.7708,24.4732 -38.41992,29.55078 -6.148,4.081 -22.40603,12.7843 -29.18903,15.6763 -3.93014,1.67518 -29.6595,8.1441 -44.81099,15.46045 -4.502,2.391 -9.2674,5.17381 -12.4414,9.25781 -4.671,6.011 -6.86382,14.89294 -9.50782,21.96094 -4.995,13.355 -10.23678,25.931 -13.05078,40 -2.716,13.579 4.08424,54.74095 4.08424,54.74095 0,0 2.79201,10.42922 4.23219,14.25905 2.315,6.16 4.13975,12.39403 4.59375,18.99997 1.099,15.95 -7.76716,40.88 15.08984,45 2.768,-18.75 18.467,-36.5391 31,-49.66404 6.34419,-6.64511 20.20039,-19.51116 28.73828,-23.67773 7.89443,4.37789 17.1936,-1.2559 22.31641,-13.77148 v -0.002 c 0.99865,-2.44018 1.66772,-4.83326 1.94531,-6.88476 2.46187,0.21477 4.82554,0.6408 7.1211,1.14648 h 0.002 c 10.73271,2.36453 19.97903,6.45198 30.83789,-1.36719 2.263,-1.63 4.2012,-3.58436 5.86719,-5.81836 2.74742,-3.68466 10.47298,-15.8018 9.09961,-21.0371 14.02156,7.29457 30.62575,8.12645 37.58984,-8.92383 3.821,-9.354 -3.14158,-16.176 -4.51758,-25 4.839,0.211 10.34403,2.62611 14.95703,0.41211 11.74332,-5.63723 4.45044,-23.32132 -2.35742,-29.51758 10.44222,-6.27556 19.62261,-23.38888 10.17578,-33.80078 -3.232,-3.562 -11.74606,-5.43122 -13.03906,-10.19922 -1.059,-3.906 3.05992,-9.50953 4.66992,-12.89453 3.669,-7.717 7.04511,-16.638 3.66211,-25 -4.497,-11.119 -13.25458,-15.18957 -23.01758,-15.57032 z" data--h-bstatus="0OBSERVED" />
         <text class="kitab-name" x="241.49164" y="887.59705" text-anchor="middle" data--h-bstatus="0OBSERVED">مستدرك الحاكم</text>
      </g>

      <g class="kitab-group" data--h-bstatus="0OBSERVED">
         <path class="kitab-path" d="m 902.95773,656.31766 c -26.47435,-2.2691 -47.17888,-0.85784 -76.06337,2.5477 -12.58444,2.43403 -22.33895,3.33649 -30.78878,4.42795 -19.25927,3.28138 -37.6939,6.13182 -56.04838,13.09172 -21.39866,7.3484 -43.33289,16.76382 -64.84444,23.7048 -5.46197,3.62589 -25.1422,5.84315 -29.07804,10.9374 -2.47595,3.20467 12.6516,31.41721 18.43415,40.45762 4.94091,12.89633 23.7489,31.08691 34.5688,38.80239 9.60307,6.12252 16.07648,-6.6604 23.29413,-10.70199 8.2608,-5.95431 17.49423,-10.98087 25.688,-16.6797 8.40326,-3.06643 17.38058,-8.64441 26.82615,-10.39151 19.69255,-5.65709 39.03504,-12.93621 59.56617,-14.98518 15.09238,-2.30643 30.82642,-4.3917 45.69557,-5.06668 12.67791,2.69447 19.82912,-11.87818 24.06968,-21.47151 4.7082,-13.08479 8.09134,-27.16727 7.40815,-41.12889 -0.8917,-5.45732 -3.4691,-13.0934 -8.72779,-13.54412 z" data--h-bstatus="0OBSERVED" />
         <text class="kitab-name" x="787.50055" y="712.1568" text-anchor="middle" data--h-bstatus="0OBSERVED">صحيح ابن حبان</text>
      </g>

      <g class="kitab-group" transform="translate(-28.11745,4.08401)" data--h-bstatus="0OBSERVED">
         <path class="kitab-path" d="m 427.14898,1078.0523 c -12.20573,-0.1921 -24.22177,2.913 -36.21795,4.8791 -11.44012,2.3194 -22.83673,4.9757 -33.91825,8.6752 -6.86384,10.1264 4.66607,20.5134 6.33613,30.6644 4.13777,10.5892 7.86199,21.5572 8.51219,32.9956 6.47769,11.671 19.39869,-2.221 28.81337,-2.3233 13.48079,-3.3173 27.28986,-5.3892 40.47102,-9.8561 11.59447,1.5155 23.19299,-2.0257 34.86482,-1.2545 11.3734,-0.332 22.85603,0.4105 34.05745,-0.8964 17.33744,2.1393 34.02219,7.9289 50.82455,12.4106 12.18565,3.2776 24.33698,6.8182 35.6203,12.5436 11.67878,1.3865 3.35205,-17.3092 7.95603,-24.0576 2.87847,-15.5895 18.66868,-23.438 24.63193,-37.4139 -24.71051,-11.7918 -51.13091,-18.2188 -78.15754,-21.5167 -45.46542,-5.7046 -81.90977,-7.1416 -123.79405,-4.85 z" data--h-bstatus="0OBSERVED" />
         <text class="kitab-name" x="571.57812" y="1126.9199" transform="translate(-119.97429,-9.5293619)" data--h-bstatus="0OBSERVED">صحيح ابن خزيمة</text>
      </g>

      <g class="kitab-group" data--h-bstatus="0OBSERVED">
         <path class="kitab-path" d="m 384.5271,917.89969 c -17.32404,-0.44327 -39.23581,4.66003 -53.11161,15.15926 -9.04612,3.65493 -18.19747,9.57435 -27.58238,5.15493 -5.40688,-2.16169 -14.9983,40.43189 -53.83241,23.78542 -4.20559,16.36175 -20.35527,20.34854 -34.53554,23.58608 -9.91766,6.98544 -19.48063,14.28531 -26.95359,25.28822 -22.71139,25.7912 -36.37607,63.4622 -24.68191,97.1573 3.37763,18.2465 15.99493,-1.8808 20.81804,-9.2054 26.18554,-34.4273 69.12884,-59.6087 74.92487,-62.2192 49.76692,-29.8725 92.07635,-34.0578 121.42806,-36.6075 44.67042,-2.37396 85.49581,1.5488 128.6405,14.0562 9.93903,4.3011 11.93747,0.079 6.09804,-8.1296 -8.21641,-17.98919 -16.41089,-39.48872 -36.98059,-46.3288 -19.70885,-8.0143 -45.03866,-7.41454 -58.43148,-26.52617 -9.1436,-15.09612 -20.77934,-13.63491 -35.8,-15.17074 z" data--h-bstatus="0OBSERVED" />
         <text class="kitab-name" x="364.6701" y="976.4964" text-anchor="middle" data--h-bstatus="0OBSERVED">مسند أبي يعلى</text>
      </g>

      <g class="kitab-group" data--h-bstatus="0OBSERVED">
         <path class="kitab-path" d="m 371.0007,408.9993 c -8.94098,1.74 -17.84501,4.89375 -26,8.96875 -5.645,2.821 -10.825,6.47425 -17,8.03125 0.868,10.622 3.87839,21.831 7.02539,32 1.845,5.96 4.42861,11.744 4.97461,18 -6.262,-1.117 -11.356,-4.98924 -17,-7.74024 -11.336,-5.525 -23.308,-9.31481 -36,-9.25781 -4.018,0.018 -9.14351,-0.0494 -12.85351,1.72656 -3.195,1.529 -3.55663,5.13049 -4.01563,8.27149 l -2.85937,20 c -0.364,2.555 -1.37387,6.18808 -0.002,8.58008 2.598,4.533 13.14247,5.74437 17.73047,7.48437 12.041,4.567 24.211,10.60486 35,17.63086 11.85549,7.32508 20.97531,17.93394 30.07422,28.30469 2.7426,3.02346 8.03708,14.08407 9.26367,16.68554 -6.14998,2.81099 -11.65785,5.73368 -16.33789,8.23243 -11.199,5.979 -29.87987,16.86995 -38.92187,25.98395 -9.08221,7.97263 -44.16961,53.8138 -56.76953,81.09808 -4.045,11.33 -7.3006,22.887 -7.3086,35 10.338,-4.433 19.672,-11.01905 30,-15.49805 11.097,-4.813 21.64008,-8.84087 34,-12.50195 9.60131,-1.50522 16.27963,-3.59781 20.00001,-4.25 21.40255,-5.33956 27.32522,-9.1972 48.09069,-18.76061 15.40165,-8.08393 21.64738,-12.5894 35.28822,-19.76674 14.13461,-7.43716 23.04369,-16.4487 29.17773,-20.27734 5.109,-3.189 16.48818,-6.72848 19.32618,-12.27148 1.207,-2.358 0.062,-5.27883 -0.45899,-7.67383 -1.083,-4.984 -1.80497,-10.082 -3.16797,-15 -6.35,-22.905 -20.38703,-43.775 -32.45703,-64 -3.355,-5.622 -6.48655,-11.36305 -9.81055,-16.99805 -10.18649,-18.06952 -20.54849,-34.17152 -28.52734,-54.00196 -5.936,-15.516 -8.40094,-31.699 -10.46094,-48 z" data--h-bstatus="0OBSERVED" />
         <text class="kitab-name" x="374.1579" y="625.04651" text-anchor="middle" data--h-bstatus="0OBSERVED">مسند البزار</text>
      </g>

      <g class="kitab-group" data--h-bstatus="0OBSERVED">
         <path class="kitab-path" d="m 626.0007,998.9993 c -1.9754,14.3596 2.18144,28.9154 4.51768,43.2504 0.85778,6.7987 2.62947,32.5762 -15.0936,57.765 -8.0021,11.3584 -15.71546,22.7037 -25.42408,32.9846 27.26435,0.9676 55.76745,3.9989 82.9043,7.6133 10.20727,1.5034 33.62831,7.8103 44.48602,11.5884 24.36498,8.08 54.61194,22.8608 72.98052,37.3067 8.54471,5.7484 13.9733,20.1987 19.36971,16.367 12.81431,-29.9264 11.82453,-61.0365 5.69529,-92.2721 -3.31904,-11.2071 -2.51096,-18.8406 -2.26317,-29.3303 0.16187,-7.4313 3.46649,-22.7054 -8.72106,-15.2489 -30.0983,9.0962 -63.1225,7.6066 -92.86059,-2.3005 -10.48803,-4.5487 -22.06373,-7.319 -30.42331,-15.5033 -16.61261,-12.8825 -33.34166,-26.0587 -45.75526,-43.2499 -2.82198,-3.295 -8.8192,-13.28283 -9.41245,-8.9704 z" data--h-bstatus="0OBSERVED" />
         <text class="kitab-name" x="720.5434" y="1109.6927" text-anchor="middle" data--h-bstatus="0OBSERVED">مسند إسحاق بن راهويه</text>
      </g>

      <g class="kitab-group" data--h-bstatus="0OBSERVED">
         <path class="kitab-path" d="m 368.19871,1006.2614 c -19.80571,2.956 -39.9038,5.4829 -58.99162,11.6476 -9.11129,7.1408 -1.38386,20.7847 -1.13296,30.635 3.19163,13.6247 6.97616,27.4062 13.36987,39.8593 10.90676,7.952 24.66737,-4.4291 36.9989,-4.1977 48.28023,-9.3513 91.18567,-10.3151 140.81891,-6.2764 23.13442,1.0903 68.5743,12.0147 87.96832,19.9767 8.9893,4.4849 22.20052,9.6589 25.06235,-4.5839 9.57313,-15.5163 12.6866,-34.1834 9.26473,-49.783 -8.44075,-10.5377 -22.80757,-1.2253 -34.57629,-2.8446 -21.57521,-1.6554 -42.7233,-9.6105 -65.84202,-17.2056 -16.12025,-5.0814 -32.4993,-9.2898 -48.87649,-13.4505 -22.82768,-6.5891 -72.52308,-8.6618 -104.0637,-3.7769 z" data--h-bstatus="0OBSERVED" />
         <text class="kitab-name" x="463.56689" y="1052.27" text-anchor="middle" data--h-bstatus="0OBSERVED">مسند ابن أبي شيبة</text>
      </g>

      <g class="kitab-group" data--h-bstatus="0OBSERVED">
         <path class="kitab-path" d="m 399.90109,667.89969 c -1.69133,-0.0618 -3.29797,0.12712 -4.73047,0.70312 -7.46399,3.002 -12.66317,14.01949 -16.82617,20.39649 -12.718,19.483 -30.42342,47.22593 -35.23242,70.46093 0.14803,4.5445 0.58894,7.48437 3.40039,10.68168 3.12582,3.55481 7.24802,6.88637 8.16016,10.85742 1.35764,5.91532 1.20806,12.3453 -0.35938,18.27734 -0.42759,1.61824 -0.96088,3.19899 -1.59765,4.72266 -1.495,3.578 -6.41082,10.64903 -5.00782,14.58203 0.925,2.591 5.28097,3.97958 7.29297,5.64258 2.86402,2.36685 8.86759,11.63929 9.25782,12.24414 -0.0282,1.55588 -0.30863,12.76176 -2.58594,17.52929 -2.04702,4.287 -7.9007,7.51159 -8.84571,12.01758 -0.86199,4.111 3.11944,9.84138 3.89844,13.98438 2.463,13.091 -6.49661,17.444 -16.72461,22 1.631,6.163 2,11.632 2,18 10.509,-1.552 20.281,-6.67918 31,-7.82617 12.412,-1.329 25.826,1.56517 38,3.82617 2.09395,-3.67891 5.74035,-11.38904 11.03516,-18.60938 3.12238,-6.73476 18.34322,-18.74555 20.00391,-19.90625 13.086,-9.146 28.18293,-15.66837 39.96093,-26.48437 -3.981,-6.921 -9.35465,-12.689 -12.76562,-20 -1.40853,-3.01717 -5.18492,-10.89124 -7.61719,-17.99024 -0.69,-13.63952 -1.81529,-18.54918 -1.44336,-23.01 0.40298,-4.8418 1.69995,-19.05098 3.38477,-25.79102 0,0 5.97634,-18.15098 10.27734,-26.20898 2.337,-4.378 7.38891,-9.979 7.75391,-15 0.321,-4.426 -3.77,-8.666 -6.16797,-12 -6.34737,-8.82329 -21.45094,-21.35357 -24.61649,-23.45801 -3.83154,-3.17697 -10.90097,-6.04357 -16.80539,-9.2334 -6.088,-2.82 -12.514,-4.98869 -19,-6.67969 -4.18875,-1.092 -10.02562,-3.54298 -15.09961,-3.72851 z" data--h-bstatus="0OBSERVED" />
         <text class="kitab-name" x="418.70361" y="807.55762" text-anchor="middle" data--h-bstatus="0OBSERVED">مسند أحمد</text>
      </g>

      <g class="kitab-group" data--h-bstatus="0OBSERVED">
         <path class="kitab-path" d="m 331.30148,1171.554 c -11.68379,0.3856 -22.89455,4.606 -33.78057,8.5633 -18.7009,7.4564 -35.55063,19.2306 -49.70958,33.4485 -7.9834,7.4671 1.87937,15.4171 5.59461,22.1472 13.71612,18.8204 27.80987,71.3428 28.59471,74.2858 2.27115,6.0117 7.20815,14.2437 12.91169,19.4381 8.997,9.0031 19.2025,16.7912 29.7808,23.7896 10.26218,2.5319 15.41166,-10.3325 23.34658,-14.6183 11.00429,-7.1107 23.60783,-11.1455 34.96093,-17.6094 -5.4156,-13.028 -14.19464,-22.1042 -22.13784,-35.5877 -15.06863,-35.3054 -19.91694,-92.5155 -21.01605,-108.6669 -0.65085,-3.9878 -5.15215,-5.0299 -8.54528,-5.1902 z" data--h-bstatus="0OBSERVED" />
         <text class="kitab-name" x="313.7095" y="1264.9554" text-anchor="middle" data--h-bstatus="0OBSERVED">سنن الدارمي</text>
      </g>

      <g class="kitab-group" data--h-bstatus="0OBSERVED">
         <path class="kitab-path" d="m 909.88547,717.63602 c -8.29577,4.74633 -9.78148,17.65919 -20.63541,20.33992 -10.87015,4.51324 -25.08701,2.98073 -36.29623,6.23453 -8.65684,0.80995 -19.18946,2.80426 -28.61577,4.21308 -15.93559,2.80946 -32.11356,4.92707 -47.67979,9.32267 -8.94808,3.4555 -15.20294,5.85294 -25.14441,10.18197 -12.89725,9.35893 -23.68242,12.74202 -33.12329,24.27094 -8.33223,8.89414 -3.92662,20.841 -0.0222,29.96602 10.31534,16.92252 23.92561,31.53503 37.41753,45.93986 6.81394,4.80594 15.00582,10.97806 23.57055,14.02162 16.72411,6.25234 34.65498,9.722 52.48809,10.08145 13.10194,0.4406 6.62307,-14.70738 5.1914,-22.20659 0.34396,-9.10803 -5.22968,-18.61148 0.66852,-26.08715 4.57652,-9.3339 9.53952,-19.35291 17.67715,-25.87379 4.30848,8.26284 16.37814,7.70468 20.18842,16.69259 3.17611,7.60152 10.33519,19.863 19.37851,11.3143 8.34662,-8.74011 -3.49919,-19.82619 -9.18664,-26.91892 -2.65487,-3.6303 -16.61018,-15.67119 -7.00675,-16.61485 10.19512,7.26123 17.3317,18.43968 23.48087,29.2382 5.6845,7.69827 3.95903,20.10536 12.36897,25.54477 8.00674,-0.27209 21.39903,-4.8814 18.75514,-15.29707 -5.17161,-18.91385 -24.93556,-28.03242 -33.35938,-45 13.38337,-3.07083 27.2001,0.19051 40.67263,-1.30602 9.94663,-3.33443 5.66372,-15.77791 5.24074,-23.4411 -2.71918,-12.15598 -19.46557,-5.76557 -28.24314,-6.94138 -8.96599,0.53443 -17.91936,1.62927 -26.67023,3.6885 1.93169,-10.96177 16.20289,-14.07559 23.4973,-21.37908 7.63432,-4.81373 24.96351,-14.95176 11.20808,-23.2129 -4.94035,-2.83921 -10.28291,-5.43096 -15.82063,-6.77157 z" data--h-bstatus="0OBSERVED" />
         <text class="kitab-name" x="817.21448" y="804.41156" text-anchor="middle" data--h-bstatus="0OBSERVED">سنن ابن ماجه</text>
      </g>

      <g class="kitab-group" data--h-bstatus="0OBSERVED">
         <path class="kitab-path" d="m 372.0007,679.70438 c -17.304,0 -33.65253,10.55134 -50.51953,14.27734 -7.625,1.684 -24.2427,4.46604 -31.66211,7.19531 -8.95054,3.29251 -7.92636,-0.5372 -34.81836,14.82422 -9.58784,7.97441 -24.317,8.82863 -35.86453,15.94642 -24.91002,14.47824 -51.01484,69.17584 -59.13547,111.05163 4.84,-1.762 8.65316,-5.11916 13.28516,-7.16016 10.502,-4.627 22.77484,-7.10494 33.71484,-10.83594 3.0088,-1.02608 31.15141,-19.38762 34.59347,-22.06082 11.46186,-8.85399 25.99157,-18.0781 38.0706,-26.07199 0.002,0.0105 0.004,0.0176 0.004,0.0176 0,0 23.46403,-12.14961 34.33203,-13.59961 5.913,-0.79 16.55808,2.02559 21.58008,-1.31641 2.525,-1.68 3.05175,-5.28365 3.84375,-7.97265 1.571,-5.33 3.13072,-10.773 5.01172,-16 4.483,-12.451 10.34928,-23.566 16.98828,-35 3.472,-5.979 7.92617,-16.91092 10.57617,-23.29492 z" data--h-bstatus="0OBSERVED" />
         <text class="kitab-name" x="271.61108" y="749.91083" text-anchor="middle" data--h-bstatus="0OBSERVED">سنن النسائي</text>
      </g>

      <g class="kitab-group" data--h-bstatus="0OBSERVED">
         <path class="kitab-path" d="m 480.0007,861.9993 c -17.25111,6.91937 -32.55663,18.24363 -45.99734,30.96661 -6.93911,7.69471 -15.94844,16.09107 -15.73381,27.24128 2.35553,12.29079 14.97644,18.75135 25.38031,23.44338 13.84797,5.86024 29.08878,7.68816 42.38292,14.98935 8.48558,3.79854 17.14628,10.20184 22.59065,18.04391 9.09573,16.08941 12.94325,37.29077 30.38834,46.92117 8.49931,4.6833 18.49868,5.0632 28.09682,6.8628 16.91712,2.4666 34.53438,4.9613 51.31404,0.4821 7.44995,-5.8453 2.10862,-17.6988 2.34008,-26.0724 -1.83251,-17.88595 -3.45816,-36.11906 0.70005,-53.82648 1.05673,-7.2627 4.86702,-16.59195 -5.14963,-14.76807 -14.9193,-1.5474 -29.3579,-3.65602 -42.87739,-7.21284 -18.1008,-7.81097 -44.16538,-14.51053 -58.97778,-27.74169 -11.78311,-10.29009 -22.90069,-21.61506 -32.00729,-34.35299 -0.95675,-1.58437 -1.79393,-3.24433 -2.44997,-4.97613 z" data--h-bstatus="0OBSERVED" />
         <text class="kitab-name" x="536.29572" y="953.87146" text-anchor="middle" data--h-bstatus="0OBSERVED">سنن الترمذي</text>
      </g>

      <g class="kitab-group" data--h-bstatus="0OBSERVED">
         <path class="kitab-path" d="m 595.09641,1137.4759 c -15.4203,-1.3907 -14.31587,17.4594 -15.23197,27.9902 2.82123,30.7953 -6.14601,53.6414 -30.2533,74.2405 -5.44586,4.4156 -21.93316,22.4886 -5.69276,19.2267 36.93609,-4.5462 81.95711,11.4106 96.22887,16.9888 30.84377,11.8219 53.16726,27.6782 76.67664,49.8433 9.89322,9.3292 17.12601,20.7979 24.73137,31.9226 11.01476,15.5907 10.30923,-10.816 11.87229,-18.8292 1.78634,-14.2773 7.54884,-42.3588 11.18095,-57.1062 6.40117,-23.8051 14.752,-30.1017 31.2363,-49.0035 10.43531,-10.0091 8.34213,-25.336 -2.50359,-34.1199 -15.33933,-17.0223 -36.95421,-26.2834 -58.34054,-33.1418 -9.80706,-4.8969 -21.70281,-8.2067 -32.48273,-11.9606 -32.61163,-11.52 -99.6993,-15.599 -107.42153,-16.0509 z" data--h-bstatus="0OBSERVED" />
         <text class="kitab-name" x="685.55109" y="1220.7452" text-anchor="middle" data--h-bstatus="0OBSERVED">سنن أبي داود ٢</text>
      </g>

      <g class="kitab-group" data--h-bstatus="0OBSERVED">
         <path class="kitab-path" d="m 520.0007,1268.9993 c -13.88611,1.8319 -20.47201,16.9136 -33.62646,20.5549 -23.78082,11.1598 -57.46089,30.1313 -84.305,32.701 -22.86744,-0.9598 -30.10584,7.3698 -49.48165,18.164 -6.4213,5.2707 -18.91885,9.5514 -17.57561,19.3605 6.14251,8.0152 17.39202,15.0463 25.24747,21.1896 10.09128,7.8868 40.21004,51.404 55.54406,70.517 9.60887,11.4399 21.79315,21.3315 36.61627,24.7993 9.16755,5.0248 18.32342,-0.8021 15.32666,-11.5779 -4.07342,-26.7361 1.76764,-54.3453 6.69378,-79.6424 6.99077,-28.3734 19.8289,-54.2156 30.80535,-80.7163 5.12827,-11.664 12.48194,-22.6193 14.75513,-35.3497 z" data--h-bstatus="0OBSERVED" />
         <text class="kitab-name" x="424.30603" y="1375.3313" text-anchor="middle" data--h-bstatus="0OBSERVED">سنن أبي داود ١</text>
      </g>

      <g class="kitab-group" data--h-bstatus="0OBSERVED">
         <path class="kitab-path" d="m 545.0007,1262.9993 c -16.34795,-4.2309 -22.0838,14.7742 -25.40934,26.7117 -5.81459,15.4095 -11.6423,30.8119 -19.87831,45.0987 -6.57016,13.7517 -11.24928,28.2882 -17.01691,42.374 3.05247,14.693 22.83453,3.4308 33.21782,6.9841 20.59917,1.0524 41.07106,5.3929 60.8404,10.8226 30.2977,9.2471 50.68474,31.6951 74.73305,49.7195 9.39131,6.164 14.39689,22.1089 24.44575,23.8629 10.94862,-7.1908 17.71559,-19.3429 27.47526,-28.1017 15.51285,-17.3836 29.77479,-36.2613 39.69759,-57.3642 5.29381,-14.4252 -6.60823,-25.5724 -14.71061,-35.767 -9.27812,-12.0663 -19.93188,-23.2443 -32.75494,-31.5384 -11.84468,-11.6794 -25.27283,-21.7132 -40.7635,-28.0034 -23.21511,-10.9031 -47.30447,-21.1345 -73.16348,-23.1993 -12.20119,-1.145 -24.47697,-0.9904 -36.71278,-1.5995 z" data--h-bstatus="0OBSERVED" />
         <text class="kitab-name" x="623.97577" y="1356.5197" text-anchor="middle" data--h-bstatus="0OBSERVED">الجمع بين الصحيحين ٦</text>
      </g>

      <g class="kitab-group" data--h-bstatus="0OBSERVED">
         <path class="kitab-path" d="m 299.0007,1025.9993 c -12.70822,0.8904 -23.54437,8.5875 -34.75453,13.9126 -15.7342,10.0898 -43.36802,24.8782 -55.50237,39.2157 -11.87071,13.2152 -30.49061,31.0288 -34.95035,40.2722 -5.7873,17.5808 36.37525,59.6789 47.27192,73.5798 5.96876,6.7075 10.28804,15.1752 17.79011,20.3271 11.78348,1.2046 14.33427,-27.3691 68.87187,-40.739 10.28195,-2.7974 24.09354,-5.9156 31.27335,-6.5684 -0.16124,-10.4214 -7.55158,-28.602 -11.29484,-42.8906 -5.92188,-13.2351 -15.18039,-29.9013 -18.22826,-45.7231 -4.91741,-16.7496 -9.98077,-33.818 -10.4769,-51.3863 z" data--h-bstatus="0OBSERVED" />
         <text class="kitab-name" x="258.98834" y="1132.2604" text-anchor="middle" data--h-bstatus="0OBSERVED">الجمع بين الصحيحين ٥</text>
      </g>

      <g class="kitab-group" data--h-bstatus="0OBSERVED">
         <path class="kitab-path" d="m 491.86984,1387.3782 c -20.43402,-1.8351 -19.51904,34.3867 -19.32798,48.9155 0.0219,14.0053 -1.2825,28.274 1.66578,42.0768 2.38789,7.8317 10.88964,12.3896 18.12511,15.1752 17.47884,4.5477 31.88596,7.0601 49.96397,11.0619 25.36208,3.5876 41.65709,4.5854 61.28887,4.3859 18.80968,-0.2932 38.32403,-4.3898 53.17408,-16.6307 6.69019,-5.5029 18.09019,-13.8978 10.22448,-23.2634 -21.33956,-29.8548 -52.62377,-50.5635 -84.71275,-67.2207 -37.15659,-13.9517 -55.36271,-11.2223 -90.40156,-14.5005 z" data--h-bstatus="0OBSERVED" />
         <text class="kitab-name" x="564.66321" y="1450.7609" text-anchor="middle" data--h-bstatus="0OBSERVED">الجمع بين الصحيحين ٤</text>
      </g>

      <g class="kitab-group" data--h-bstatus="0OBSERVED">
         <path class="kitab-path" d="m 451.0007,1150.5891 c -37.85629,2.9121 -56.12126,5.6952 -67.27609,8.8336 -12.3005,2.9642 -24.38975,6.7462 -36.72391,9.5766 0.26561,17.0627 2.14359,34.051 4,51 0.72028,1.5407 5.97252,39.948 10.92349,49.9698 7.77025,15.6906 14.3378,32.754 27.12052,45.1659 8.75325,6.0655 30.13412,-2.2906 49.76096,-8.5079 44.91295,-20.8428 62.63847,-29.1801 99.54388,-65.3546 17.02679,-15.9773 33.83926,-30.4257 36.60082,-53.2322 2.20689,-10.4885 -9.16267,-15.6 -17.35858,-17.9317 -22.28885,-8.2934 -45.79463,-12.568 -69.14773,-16.6288 -11.98887,-2.765 -29.50933,-3.1678 -37.44336,-2.8907 z" data--h-bstatus="0OBSERVED" />
         <text class="kitab-name" x="454.33304" y="1223.1492" text-anchor="middle" data--h-bstatus="0OBSERVED">الجمع بين الصحيحين ٣</text>
      </g>

      <g class="kitab-group" data--h-bstatus="0OBSERVED">
         <path class="kitab-path" d="m 705.0007,801.9993 c -14.11321,12.48226 -22.066,31.65967 -32.02927,47.31924 -12.14711,20.60612 -22.36114,40.81409 -30.99026,63.06552 -7.48324,13.78099 -14.22576,28.20038 -15.46748,44.06598 -1.23145,12.29344 -4.84105,25.74465 2.4098,36.96967 5.85644,10.19789 13.95168,18.12669 23.13462,25.67019 14.89393,13.1031 29.18792,27.6614 47.70294,35.7199 17.3409,7.4522 35.24057,14.7255 54.36769,15.7382 16.64243,1.6095 33.43089,-1.7352 49.54408,-5.6223 12.4895,-2.2317 17.71295,-14.2416 20.49835,-25.2135 3.62964,-9.9147 5.16458,-19.8644 4.74652,-30.3675 0.75329,-15.5399 -3.59824,-31.07308 -10.68457,-44.80409 10.73226,-6.34975 16.52328,-19.21124 20.80912,-30.54044 1.00384,-10.79546 9.68158,-31.32416 -3.59129,-36.09008 -21.98453,-0.20687 -44.51604,-2.56812 -64.39253,-12.72579 -9.70868,-4.99963 -20.38588,-8.79767 -27.66974,-17.32728 -15.83666,-13.63622 -28.70715,-31.35808 -33.00244,-52.13485 -1.42649,-4.70473 -3.03303,-9.38999 -5.38554,-13.72287 z" data--h-bstatus="0OBSERVED" />
         <text class="kitab-name" x="737.89917" y="955.54156" text-anchor="middle" data--h-bstatus="0OBSERVED">الجمع بين الصحيحين ٢</text>
      </g>

      <g class="kitab-group" data--h-bstatus="0OBSERVED">
         <path class="kitab-path" d="m 568.39523,684.75516 c -3.84481,-0.0969 -7.66428,0.0713 -11.39453,0.52929 -9.424,1.158 -15.55366,2.48107 -27,7.67774 -8.60308,4.67404 -9.67096,3.87846 -20,10.47653 -10.33,7.272 -18.009,14.59254 -24.437,25.51854 -4.95092,8.74857 -3.62103,4.70538 -7.70167,13.20216 -5.54781,9.66428 -8.60096,20.83684 -10.56055,31.83985 -2.447,16.937 -0.68523,35.01 5.50977,51 2.291,5.914 15.70898,26.48926 15.70898,26.48926 3.41944,9.97295 7.25027,15.51421 10.83448,23.23635 8.039,10.717 9.16297,13.26532 19.64597,21.48532 4.59089,3.59891 8.70444,6.41541 24.70117,14.58399 20.45731,8.77962 44.55888,16.19341 58.29883,18.47655 6.163,0.878 17.90727,2.866 23.69727,0.125 3.523,-1.669 4.4119,-8.10848 5.7539,-11.39648 3.915,-9.588 9.22797,-18.707 13.79297,-28 18.86342,-38.41774 0.0632,0.96247 32.74414,-61.00005 3.49,-5.928 7.35733,-11.495 11.48633,-17 3.36,-4.48 14.03195,-9.99634 9.96931,-14 -13.50139,-13.30538 -28.146,-23.01287 -36.166,-39.85887 -0.88611,-3.63505 -6.51949,-8.69121 -9.31139,-16.16594 -8.29338,-27.64189 -26.43903,-37.16201 -51.96653,-49.82479 -10.30425,-4.42275 -22.07103,-7.10376 -33.60547,-7.39453 z" data--h-bstatus="0OBSERVED" />
         <text class="kitab-name" x="586.90405" y="805.70148" text-anchor="middle" data--h-bstatus="0OBSERVED">الجمع بين الصحيحين ١</text>
      </g>

   </g>
</svg>